<svg xmlns="http://www.w3.org/2000/svg" viewBox="0 0 20 20">
  <defs>
    <style>
      .cls-1 {
        fill: #223066;
      }
    </style>
  </defs>
  <g id="Symbol_27_2" data-name="Symbol 27 – 2" transform="translate(-425 -542)">
    <path id="Path_192" data-name="Path 192" class="cls-1" d="M16.474,0H3.526A3.532,3.532,0,0,0,0,3.526V16.474A3.53,3.53,0,0,0,3.526,20H16.474A3.532,3.532,0,0,0,20,16.474V3.526A3.53,3.53,0,0,0,16.474,0ZM10.766,3.5V9.365h2.607L10,15.275h0L6.627,9.365H9.234V3.5H.875A2.661,2.661,0,0,1,3.526.875H16.474A2.662,2.662,0,0,1,19.125,3.5H10.766Z" transform="translate(425 542)"/>
  </g>
</svg>
