<svg xmlns="http://www.w3.org/2000/svg" viewBox="0 0 20 20">
  <defs>
    <style>
      .cls-1 {
        fill: #212f66;
      }
    </style>
  </defs>
  <path id="Path_191" data-name="Path 191" class="cls-1" d="M16.473,0H3.527A3.529,3.529,0,0,0,0,3.527V16.473A3.529,3.529,0,0,0,3.527,20H16.473A3.529,3.529,0,0,0,20,16.473V3.527A3.529,3.529,0,0,0,16.473,0ZM.873,16.473V3.527A2.656,2.656,0,0,1,3.527.873H16.473a2.656,2.656,0,0,1,2.654,2.654V16.5H10.766V10.927H13.38L10,5.073,6.62,10.927H9.234V16.5H.878A.062.062,0,0,1,.873,16.473Z"/>
</svg>
