<?xml version="1.0" encoding="utf-8"?>
<!-- Generator: Adobe Illustrator 16.2.1, SVG Export Plug-In . SVG Version: 6.00 Build 0)  -->
<!DOCTYPE svg PUBLIC "-//W3C//DTD SVG 1.1//EN" "http://www.w3.org/Graphics/SVG/1.1/DTD/svg11.dtd">
<svg version="1.1" id="Layer_1" xmlns="http://www.w3.org/2000/svg" xmlns:xlink="http://www.w3.org/1999/xlink" x="0px" y="0px"
	 width="180.424px" height="41.9px" viewBox="0 0 180.424 41.9" enable-background="new 0 0 180.424 41.9" xml:space="preserve">
<g id="Checkout">
	<path fill="#223066" d="M37.2,41.9H4.7C2.1,41.9,0,39.8,0,37.2V4.7C0,2.101,2.1,0,4.7,0h32.4c2.6,0,4.7,2.101,4.7,4.7v32.4
		C41.9,39.8,39.8,41.9,37.2,41.9z"/>
	<g>
		<g>
			<path fill="#FFFFFF" d="M9.8,25.9v5.8c0,0.7-0.6,1.3-1.4,1.3l0,0C7.6,33,7,32.4,7,31.7V19.9"/>
		</g>
		<path fill="#FFFFFF" d="M15,12.101c4.4,0,8,3.199,8,7.699s-3.6,7.801-8,7.801S7,24.3,7,19.8C7,15.4,10.6,12.101,15,12.101z
			 M15,25.2c2.8,0,5.1-2.2,5.1-5.3c0-3.101-2.3-5.3-5.1-5.3S9.9,16.8,9.9,19.9C9.9,22.9,12.2,25.2,15,25.2z"/>
	</g>
	<g>
		<g>
			<g>
				<path fill="#FFFFFF" d="M22.9,25.9v5.8c0,0.7-0.6,1.3-1.4,1.3l0,0c-0.8,0-1.4-0.6-1.4-1.3V19.9"/>
			</g>
			<path fill="#FFFFFF" d="M28.1,12.101c4.4,0,8,3.199,8,7.699s-3.6,7.801-8,7.801s-8-3.301-8-7.801
				C20.1,15.4,23.6,12.101,28.1,12.101z M28.1,25.2c2.8,0,5.1-2.2,5.1-5.3c0-3.101-2.3-5.3-5.1-5.3c-2.8,0-5.1,2.199-5.1,5.3
				C23,22.9,25.3,25.2,28.1,25.2z"/>
		</g>
	</g>
	<g>
		<g>
			<g>
				<path fill="#223066" d="M74.201,12.101c4.399,0,8,3.199,8,7.699s-3.601,7.801-8,7.801c-4.4,0-8-3.301-8-7.801
					C66.201,15.4,69.8,12.101,74.201,12.101z M74.201,25.2c2.799,0,5.1-2.2,5.1-5.3c0-3.101-2.301-5.3-5.1-5.3
					c-2.801,0-5.101,2.199-5.101,5.3C69.1,22.9,71.4,25.2,74.201,25.2z"/>
				<path fill="#223066" d="M85.3,8.5V7.601c0-0.601,0.3-0.9,0.9-0.9h1c0.6,0,0.899,0.3,0.899,0.9V8.5c0,0.601-0.399,0.9-0.899,0.9
					h-1C85.6,9.5,85.3,9.101,85.3,8.5z M85.3,13.4c0-0.601,0.4-0.9,0.9-0.9H87.1c0.601,0,0.899,0.3,0.899,0.9V26.3
					c0,0.601-0.299,0.9-0.899,0.9h-0.899c-0.601,0-0.9-0.3-0.9-0.9V13.4z"/>
				<path fill="#223066" d="M92.3,13.4c0-0.601,0.4-0.9,0.9-0.9h0.799c0.602,0,0.9,0.3,0.9,0.9v1.3c0,0.4-0.1,0.8-0.1,0.8h0.1
					c0.6-1.3,2.4-3.5,5.6-3.5c3.5,0,5.102,1.9,5.102,5.7v8.5c0,0.6-0.301,0.9-0.9,0.9h-0.9c-0.6,0-0.9-0.301-0.9-0.9v-7.8
					c0-2.101-0.4-3.7-2.799-3.7c-2.9,0-5,2.4-5,5.5v6.1c0,0.601-0.301,0.9-0.9,0.9h-0.9c-0.6,0-0.9-0.3-0.9-0.9V13.4H92.3z"/>
				<path fill="#223066" d="M110.2,14.9h-1c-0.6,0-0.9-0.4-0.9-0.9v-0.399c0-0.601,0.301-0.9,0.9-0.9h1.1V9.5
					c0-0.6,0.4-0.899,0.9-0.899h0.799c0.701,0,0.9,0.3,0.9,0.899v3.2h2.6c0.602,0,0.9,0.4,0.9,0.9V14c0,0.601-0.299,0.9-0.9,0.9
					h-2.5v6.6c0,2.8,1.701,3.2,2.801,3.4c0.801,0.1,1,0.3,1,0.899V26.4c0,0.6-0.4,0.899-1.199,0.899c-3,0-5.5-1.699-5.5-5.399v-7
					H110.2z"/>
				<path fill="#223066" d="M118.7,24.7l0.299-0.4c0.4-0.5,0.801-0.5,1.4-0.199c0.6,0.399,1.9,1.199,3.701,1.199
					c1.5,0,2.5-0.699,2.5-1.899c0-2.9-7.701-1.9-7.701-7c0-2.8,2.5-4.3,5.4-4.3c2.1,0,3.4,0.699,4.1,1.1c0.5,0.2,0.6,0.8,0.301,1.3
					l-0.301,0.4c-0.299,0.5-0.699,0.6-1.299,0.3c-0.602-0.4-1.602-0.8-3-0.8c-1.4,0-2.5,0.6-2.5,1.899c0,3,7.699,1.9,7.699,7
					c0,2.5-2.1,4.4-5.301,4.4c-2.5,0-4.1-1-5-1.6C118.399,25.7,118.399,25.2,118.7,24.7z"/>
			</g>
			<g>
				<g>
					<path fill="#223066" d="M50.9,25.9v5.8c0,0.7-0.6,1.3-1.4,1.3l0,0c-0.8,0-1.4-0.6-1.4-1.3V19.9"/>
				</g>
				<path fill="#223066" d="M56,12.101c4.4,0,8,3.199,8,7.699s-3.6,7.801-8,7.801S48,24.3,48,19.8C48,15.4,51.6,12.101,56,12.101z
					 M56,25.2c2.8,0,5.1-2.2,5.1-5.3c0-3.101-2.3-5.3-5.1-5.3s-5.1,2.199-5.1,5.3C50.9,22.9,53.2,25.2,56,25.2z"/>
			</g>
		</g>
		<g>
			<g>
				<g>
					<path fill="#223066" d="M135.2,20v11.7c0,0.7-0.6,1.3-1.4,1.3l0,0c-0.801,0-1.4-0.6-1.4-1.3V20"/>
				</g>
			</g>
			<path fill="#223066" d="M140.399,12.101c4.4,0,8,3.199,8,7.699s-3.6,7.801-8,7.801s-8-3.301-8-7.801
				C132.399,15.4,135.899,12.101,140.399,12.101z M140.399,25.2c2.801,0,5.1-2.2,5.1-5.3c0-3.101-2.299-5.3-5.1-5.3
				c-2.799,0-5.1,2.199-5.1,5.3C135.3,22.9,137.601,25.2,140.399,25.2z"/>
			<path fill="#223066" d="M158.2,12.101c4.4,0,8,3.199,8,7.699s-3.6,7.801-8,7.801s-8-3.301-8-7.801
				C150.2,15.4,153.8,12.101,158.2,12.101z M158.2,25.2c2.799,0,5.1-2.2,5.1-5.3c0-3.101-2.301-5.3-5.1-5.3
				c-2.801,0-5.1,2.199-5.1,5.3C153.101,22.9,155.399,25.2,158.2,25.2z"/>
			<path fill="#223066" d="M165.499,27.601h-1.5c-0.398,0-0.699-0.301-0.699-0.7V19.8c0-0.399,0.301-0.699,0.699-0.699h1.5
				c0.4,0,0.701,0.3,0.701,0.699V26.9C166.2,27.3,165.899,27.601,165.499,27.601z"/>
			<path fill="#223066" d="M179.601,12.3h-1.102c-0.6,0-0.898,0.301-1.1,0.801l-3.4,8.899c-0.199,0.8-0.5,1.8-0.5,1.8h-0.1
				c0,0-0.199-1-0.5-1.8l-3.5-9c-0.199-0.5-0.5-0.8-1.1-0.8h-1.199c-0.701,0-1,0.5-0.701,1.2l5.701,13.6c-0.701,2.7-1.9,3.101-3,3.2
				c-0.801,0.1-0.9,0.3-0.9,1v0.6c0,0.7,0.299,1,1.1,1c2.199,0,3.801-1.399,4.4-3l6.5-16.399C180.7,12.8,180.3,12.3,179.601,12.3z"
				/>
		</g>
	</g>
</g>
</svg>
